<svg width="36" height="36" viewBox="0 0 36 36" fill="none" xmlns="http://www.w3.org/2000/svg">
<path d="M18 34.125C9.105 34.125 1.875 26.895 1.875 18C1.875 9.105 9.105 1.875 18 1.875C26.895 1.875 34.125 9.105 34.125 18C34.125 26.895 26.895 34.125 18 34.125ZM18 4.125C10.35 4.125 4.125 10.35 4.125 18C4.125 25.65 10.35 31.875 18 31.875C25.65 31.875 31.875 25.65 31.875 18C31.875 10.35 25.65 4.125 18 4.125Z" fill="#F43F5E"/>
<path d="M13.7541 23.37C13.4691 23.37 13.1841 23.265 12.9591 23.04C12.5241 22.605 12.5241 21.885 12.9591 21.45L21.4491 12.96C21.8841 12.525 22.6041 12.525 23.0391 12.96C23.4741 13.395 23.4741 14.115 23.0391 14.55L14.5491 23.04C14.3391 23.265 14.0391 23.37 13.7541 23.37Z" fill="#F43F5E"/>
<path d="M22.2441 23.37C21.9591 23.37 21.6741 23.265 21.4491 23.04L12.9591 14.55C12.5241 14.115 12.5241 13.395 12.9591 12.96C13.3941 12.525 14.1141 12.525 14.5491 12.96L23.0391 21.45C23.4741 21.885 23.4741 22.605 23.0391 23.04C22.8141 23.265 22.5291 23.37 22.2441 23.37Z" fill="#F43F5E"/>
</svg>
