<svg width="36" height="36" viewBox="0 0 36 36" fill="none" xmlns="http://www.w3.org/2000/svg">
<path opacity="0.2" d="M24.285 3H11.715C6.255 3 3 6.255 3 11.715V24.27C3 29.745 6.255 33 11.715 33H24.27C29.73 33 32.985 29.745 32.985 24.285V11.715C33 6.255 29.745 3 24.285 3Z" fill="#F43F5E"/>
<path d="M19.5891 18L23.0391 14.55C23.4741 14.115 23.4741 13.395 23.0391 12.96C22.6041 12.525 21.8841 12.525 21.4491 12.96L17.9991 16.41L14.5491 12.96C14.1141 12.525 13.3941 12.525 12.9591 12.96C12.5241 13.395 12.5241 14.115 12.9591 14.55L16.4091 18L12.9591 21.45C12.5241 21.885 12.5241 22.605 12.9591 23.04C13.1841 23.265 13.4691 23.37 13.7541 23.37C14.0391 23.37 14.3241 23.265 14.5491 23.04L17.9991 19.59L21.4491 23.04C21.6741 23.265 21.9591 23.37 22.2441 23.37C22.5291 23.37 22.8141 23.265 23.0391 23.04C23.4741 22.605 23.4741 21.885 23.0391 21.45L19.5891 18Z" fill="#F43F5E"/>
</svg>
