<svg width="72" height="72" viewBox="0 0 72 72" fill="none" xmlns="http://www.w3.org/2000/svg">
<path d="M65.28 47.76L46.08 13.2C43.5 8.55 39.93 6 36 6C32.07 6 28.5 8.55 25.92 13.2L6.72 47.76C4.29 52.17 4.02 56.4 5.97 59.73C7.92 63.06 11.76 64.89 16.8 64.89H55.2C60.24 64.89 64.08 63.06 66.03 59.73C67.98 56.4 67.71 52.14 65.28 47.76ZM33.75 27C33.75 25.77 34.77 24.75 36 24.75C37.23 24.75 38.25 25.77 38.25 27V42C38.25 43.23 37.23 44.25 36 44.25C34.77 44.25 33.75 43.23 33.75 42V27ZM38.13 53.13C37.98 53.25 37.83 53.37 37.68 53.49C37.5 53.61 37.32 53.7 37.14 53.76C36.96 53.85 36.78 53.91 36.57 53.94C36.39 53.97 36.18 54 36 54C35.82 54 35.61 53.97 35.4 53.94C35.22 53.91 35.04 53.85 34.86 53.76C34.68 53.7 34.5 53.61 34.32 53.49C34.17 53.37 34.02 53.25 33.87 53.13C33.33 52.56 33 51.78 33 51C33 50.22 33.33 49.44 33.87 48.87C34.02 48.75 34.17 48.63 34.32 48.51C34.5 48.39 34.68 48.3 34.86 48.24C35.04 48.15 35.22 48.09 35.4 48.06C35.79 47.97 36.21 47.97 36.57 48.06C36.78 48.09 36.96 48.15 37.14 48.24C37.32 48.3 37.5 48.39 37.68 48.51C37.83 48.63 37.98 48.75 38.13 48.87C38.67 49.44 39 50.22 39 51C39 51.78 38.67 52.56 38.13 53.13Z" fill="#FDE047"/>
</svg>
