<svg width="36" height="36" viewBox="0 0 36 36" fill="none" xmlns="http://www.w3.org/2000/svg">
<path opacity="0.2" d="M24.285 3H11.715C6.255 3 3 6.255 3 11.715V24.27C3 29.745 6.255 33 11.715 33H24.27C29.73 33 32.985 29.745 32.985 24.285V11.715C33 6.255 29.745 3 24.285 3Z" fill="#4ADE80"/>
<path d="M15.8702 23.3699C15.5702 23.3699 15.2852 23.2499 15.0752 23.0399L10.8302 18.7949C10.3952 18.3599 10.3952 17.6399 10.8302 17.2049C11.2652 16.7699 11.9852 16.7699 12.4202 17.2049L15.8702 20.6549L23.5802 12.9449C24.0152 12.5099 24.7352 12.5099 25.1702 12.9449C25.6052 13.3799 25.6052 14.0999 25.1702 14.5349L16.6652 23.0399C16.4552 23.2499 16.1702 23.3699 15.8702 23.3699Z" fill="#4ADE80"/>
</svg>
